<!DOCTYPE svg PUBLIC "-//W3C//DTD SVG 1.1//EN" "http://www.w3.org/Graphics/SVG/1.1/DTD/svg11.dtd">
<!-- Uploaded to: SVG Repo, www.svgrepo.com, Transformed by: SVG Repo Mixer Tools -->
<svg width="64px" height="64px" viewBox="0 0 24 24" id="Layer_1" data-name="Layer 1" xmlns="http://www.w3.org/2000/svg" fill="#000000">
<g id="SVGRepo_bgCarrier" stroke-width="0"/>
<g id="SVGRepo_tracerCarrier" stroke-linecap="round" stroke-linejoin="round"/>
<g id="SVGRepo_iconCarrier">
<defs>
<style>.cls-1{fill:none;stroke:#AD46FF;stroke-miterlimit:10;stroke-width:1.91px;}</style>
</defs>
<path class="cls-1" d="M9.14,12.93h3.34a1.43,1.43,0,0,0,1.43-1.43h0a1.43,1.43,0,0,0-1.43-1.43h-1a1.43,1.43,0,0,1-1.43-1.43h0A1.44,1.44,0,0,1,11.52,7.2h3.34"/>
<line class="cls-1" x1="12" y1="5.3" x2="12" y2="7.2"/>
<line class="cls-1" x1="12" y1="12.93" x2="12" y2="14.84"/>
<path class="cls-1" d="M1.5,5.3v9.54a3.82,3.82,0,0,0,3.82,3.82H7.23v2.86L13,18.66h5.73a3.82,3.82,0,0,0,3.82-3.82V5.3a3.82,3.82,0,0,0-3.82-3.82H5.32A3.82,3.82,0,0,0,1.5,5.3Z"/>
</g>
</svg>